<mxfile host="app.diagrams.net" modified="2023-01-31T08:23:57.492Z" agent="5.0 (Macintosh; Intel Mac OS X 10_15_7) AppleWebKit/537.36 (KHTML, like Gecko) Chrome/106.0.0.0 Safari/537.36" etag="yTSrcRO5uT5L1SAHUCu0" version="20.8.13" type="github">
  <diagram name="第 1 页" id="2-ZlkvL7G13mX_y-q4E0">
    <mxGraphModel dx="1647" dy="736" grid="1" gridSize="10" guides="1" tooltips="1" connect="1" arrows="1" fold="1" page="1" pageScale="1" pageWidth="827" pageHeight="1169" math="0" shadow="0">
      <root>
        <mxCell id="0" />
        <mxCell id="1" parent="0" />
        <mxCell id="AiCOMxsNIxzN5EXr95hF-1" value="" style="endArrow=classic;html=1;rounded=0;" edge="1" parent="1">
          <mxGeometry width="50" height="50" relative="1" as="geometry">
            <mxPoint x="40" y="120" as="sourcePoint" />
            <mxPoint x="1450" y="120" as="targetPoint" />
          </mxGeometry>
        </mxCell>
        <mxCell id="AiCOMxsNIxzN5EXr95hF-2" value="" style="edgeStyle=orthogonalEdgeStyle;rounded=0;orthogonalLoop=1;jettySize=auto;html=1;" edge="1" parent="1" source="AiCOMxsNIxzN5EXr95hF-6" target="AiCOMxsNIxzN5EXr95hF-8">
          <mxGeometry relative="1" as="geometry" />
        </mxCell>
        <mxCell id="AiCOMxsNIxzN5EXr95hF-3" style="edgeStyle=orthogonalEdgeStyle;rounded=0;orthogonalLoop=1;jettySize=auto;html=1;entryX=0;entryY=0.5;entryDx=0;entryDy=0;" edge="1" parent="1" source="AiCOMxsNIxzN5EXr95hF-6" target="AiCOMxsNIxzN5EXr95hF-10">
          <mxGeometry relative="1" as="geometry" />
        </mxCell>
        <mxCell id="AiCOMxsNIxzN5EXr95hF-4" style="edgeStyle=orthogonalEdgeStyle;rounded=0;orthogonalLoop=1;jettySize=auto;html=1;exitX=1;exitY=0.5;exitDx=0;exitDy=0;entryX=0;entryY=0.5;entryDx=0;entryDy=0;" edge="1" parent="1" source="AiCOMxsNIxzN5EXr95hF-6" target="AiCOMxsNIxzN5EXr95hF-12">
          <mxGeometry relative="1" as="geometry" />
        </mxCell>
        <mxCell id="AiCOMxsNIxzN5EXr95hF-5" style="edgeStyle=orthogonalEdgeStyle;rounded=0;orthogonalLoop=1;jettySize=auto;html=1;entryX=0;entryY=0.5;entryDx=0;entryDy=0;" edge="1" parent="1" source="AiCOMxsNIxzN5EXr95hF-6" target="AiCOMxsNIxzN5EXr95hF-17">
          <mxGeometry relative="1" as="geometry" />
        </mxCell>
        <mxCell id="AiCOMxsNIxzN5EXr95hF-6" value="拉取代码" style="rounded=0;whiteSpace=wrap;html=1;" vertex="1" parent="1">
          <mxGeometry x="80" y="120" width="120" height="60" as="geometry" />
        </mxCell>
        <mxCell id="AiCOMxsNIxzN5EXr95hF-7" value="" style="edgeStyle=orthogonalEdgeStyle;rounded=0;orthogonalLoop=1;jettySize=auto;html=1;" edge="1" parent="1" source="AiCOMxsNIxzN5EXr95hF-8" target="AiCOMxsNIxzN5EXr95hF-14">
          <mxGeometry relative="1" as="geometry" />
        </mxCell>
        <mxCell id="AiCOMxsNIxzN5EXr95hF-8" value="单元测试" style="rounded=0;whiteSpace=wrap;html=1;" vertex="1" parent="1">
          <mxGeometry x="280" y="120" width="120" height="60" as="geometry" />
        </mxCell>
        <mxCell id="AiCOMxsNIxzN5EXr95hF-9" style="edgeStyle=orthogonalEdgeStyle;rounded=0;orthogonalLoop=1;jettySize=auto;html=1;entryX=0;entryY=0.5;entryDx=0;entryDy=0;" edge="1" parent="1" source="AiCOMxsNIxzN5EXr95hF-10" target="AiCOMxsNIxzN5EXr95hF-14">
          <mxGeometry relative="1" as="geometry" />
        </mxCell>
        <mxCell id="AiCOMxsNIxzN5EXr95hF-10" value="代码行覆盖率" style="rounded=0;whiteSpace=wrap;html=1;" vertex="1" parent="1">
          <mxGeometry x="280" y="240" width="120" height="60" as="geometry" />
        </mxCell>
        <mxCell id="AiCOMxsNIxzN5EXr95hF-11" style="edgeStyle=orthogonalEdgeStyle;rounded=0;orthogonalLoop=1;jettySize=auto;html=1;entryX=0;entryY=0.5;entryDx=0;entryDy=0;" edge="1" parent="1" source="AiCOMxsNIxzN5EXr95hF-12" target="AiCOMxsNIxzN5EXr95hF-14">
          <mxGeometry relative="1" as="geometry" />
        </mxCell>
        <mxCell id="AiCOMxsNIxzN5EXr95hF-12" value="代码规范检查" style="rounded=0;whiteSpace=wrap;html=1;" vertex="1" parent="1">
          <mxGeometry x="280" y="360" width="120" height="60" as="geometry" />
        </mxCell>
        <mxCell id="AiCOMxsNIxzN5EXr95hF-13" value="" style="edgeStyle=orthogonalEdgeStyle;rounded=0;orthogonalLoop=1;jettySize=auto;html=1;" edge="1" parent="1" source="AiCOMxsNIxzN5EXr95hF-14" target="AiCOMxsNIxzN5EXr95hF-15">
          <mxGeometry relative="1" as="geometry" />
        </mxCell>
        <mxCell id="AiCOMxsNIxzN5EXr95hF-14" value="构建镜像并推送" style="rounded=0;whiteSpace=wrap;html=1;" vertex="1" parent="1">
          <mxGeometry x="480" y="120" width="120" height="60" as="geometry" />
        </mxCell>
        <mxCell id="AiCOMxsNIxzN5EXr95hF-22" style="edgeStyle=orthogonalEdgeStyle;rounded=0;orthogonalLoop=1;jettySize=auto;html=1;entryX=0;entryY=0.5;entryDx=0;entryDy=0;" edge="1" parent="1" source="AiCOMxsNIxzN5EXr95hF-15" target="AiCOMxsNIxzN5EXr95hF-21">
          <mxGeometry relative="1" as="geometry" />
        </mxCell>
        <mxCell id="AiCOMxsNIxzN5EXr95hF-15" value="构建完成通知" style="rounded=0;whiteSpace=wrap;html=1;" vertex="1" parent="1">
          <mxGeometry x="680" y="120" width="120" height="60" as="geometry" />
        </mxCell>
        <mxCell id="AiCOMxsNIxzN5EXr95hF-16" style="edgeStyle=orthogonalEdgeStyle;rounded=0;orthogonalLoop=1;jettySize=auto;html=1;entryX=0;entryY=0.5;entryDx=0;entryDy=0;" edge="1" parent="1" source="AiCOMxsNIxzN5EXr95hF-17" target="AiCOMxsNIxzN5EXr95hF-14">
          <mxGeometry relative="1" as="geometry" />
        </mxCell>
        <mxCell id="AiCOMxsNIxzN5EXr95hF-17" value="安全检查" style="rounded=0;whiteSpace=wrap;html=1;" vertex="1" parent="1">
          <mxGeometry x="280" y="480" width="120" height="60" as="geometry" />
        </mxCell>
        <mxCell id="AiCOMxsNIxzN5EXr95hF-24" value="" style="edgeStyle=orthogonalEdgeStyle;rounded=0;orthogonalLoop=1;jettySize=auto;html=1;" edge="1" parent="1" source="AiCOMxsNIxzN5EXr95hF-21" target="AiCOMxsNIxzN5EXr95hF-23">
          <mxGeometry relative="1" as="geometry" />
        </mxCell>
        <mxCell id="AiCOMxsNIxzN5EXr95hF-21" value="部署" style="rounded=0;whiteSpace=wrap;html=1;" vertex="1" parent="1">
          <mxGeometry x="880" y="120" width="120" height="60" as="geometry" />
        </mxCell>
        <mxCell id="AiCOMxsNIxzN5EXr95hF-26" value="" style="edgeStyle=orthogonalEdgeStyle;rounded=0;orthogonalLoop=1;jettySize=auto;html=1;" edge="1" parent="1" source="AiCOMxsNIxzN5EXr95hF-23" target="AiCOMxsNIxzN5EXr95hF-25">
          <mxGeometry relative="1" as="geometry" />
        </mxCell>
        <mxCell id="AiCOMxsNIxzN5EXr95hF-23" value="自动化执行 P0 用例" style="rounded=0;whiteSpace=wrap;html=1;" vertex="1" parent="1">
          <mxGeometry x="1080" y="120" width="120" height="60" as="geometry" />
        </mxCell>
        <mxCell id="AiCOMxsNIxzN5EXr95hF-25" value="发送提测通知" style="rounded=0;whiteSpace=wrap;html=1;" vertex="1" parent="1">
          <mxGeometry x="1280" y="120" width="120" height="60" as="geometry" />
        </mxCell>
      </root>
    </mxGraphModel>
  </diagram>
</mxfile>
